<?xml version="1.0" encoding="UTF-8" standalone="no"?>
<!DOCTYPE svg PUBLIC "-//W3C//DTD SVG 1.1//EN"
 "http://www.w3.org/Graphics/SVG/1.1/DTD/svg11.dtd">
<!-- Generated by graphviz version 2.43.0 (0)
 -->
<!-- Title: G Pages: 1 -->
<svg width="1222pt" height="506pt"
 viewBox="0.00 0.00 1222.00 506.00" xmlns="http://www.w3.org/2000/svg" xmlns:xlink="http://www.w3.org/1999/xlink">
<g id="graph0" class="graph" transform="scale(1 1) rotate(0) translate(4 502)">
<title>G</title>
<polygon fill="white" stroke="transparent" points="-4,4 -4,-502 1218,-502 1218,4 -4,4"/>
<g id="clust1" class="cluster">
<title>cluster_module.srv</title>
<polygon fill="none" stroke="black" points="380,-8 380,-245 1206,-245 1206,-8 380,-8"/>
<text text-anchor="middle" x="793" y="-229.8" font-family="sans-serif" font-size="14.00">module.srv</text>
</g>
<g id="clust2" class="cluster">
<title>cluster_module.subnet</title>
<polygon fill="none" stroke="black" points="392,-253 392,-490 931,-490 931,-253 392,-253"/>
<text text-anchor="middle" x="661.5" y="-474.8" font-family="sans-serif" font-size="14.00">module.subnet</text>
</g>
<g id="clust3" class="cluster">
<title>cluster_module.vpc</title>
<polygon fill="none" stroke="black" points="8,-337 8,-412 360,-412 360,-337 8,-337"/>
<text text-anchor="middle" x="184" y="-396.8" font-family="sans-serif" font-size="14.00">module.vpc</text>
</g>
<!-- module.srv.aws_eip.nat_eip -->
<g id="node1" class="node">
<title>module.srv.aws_eip.nat_eip</title>
<polygon fill="none" stroke="black" points="851.5,-214 725.5,-214 725.5,-178 851.5,-178 851.5,-214"/>
<text text-anchor="middle" x="788.5" y="-192.3" font-family="sans-serif" font-size="14.00">aws_eip.nat_eip</text>
</g>
<!-- module.srv.aws_instance.bastion -->
<g id="node2" class="node">
<title>module.srv.aws_instance.bastion</title>
<polygon fill="none" stroke="black" points="870.5,-106 706.5,-106 706.5,-70 870.5,-70 870.5,-106"/>
<text text-anchor="middle" x="788.5" y="-84.3" font-family="sans-serif" font-size="14.00">aws_instance.bastion</text>
</g>
<!-- module.srv.aws_security_group.bastion&#45;sg -->
<g id="node6" class="node">
<title>module.srv.aws_security_group.bastion&#45;sg</title>
<polygon fill="none" stroke="black" points="618,-160 388,-160 388,-124 618,-124 618,-160"/>
<text text-anchor="middle" x="503" y="-138.3" font-family="sans-serif" font-size="14.00">aws_security_group.bastion&#45;sg</text>
</g>
<!-- module.srv.aws_instance.bastion&#45;&gt;module.srv.aws_security_group.bastion&#45;sg -->
<g id="edge1" class="edge">
<title>module.srv.aws_instance.bastion&#45;&gt;module.srv.aws_security_group.bastion&#45;sg</title>
<path fill="none" stroke="black" d="M706.26,-103.47C675.79,-109.28 640.72,-115.96 608.44,-122.11"/>
<polygon fill="black" stroke="black" points="607.69,-118.69 598.52,-124 609,-125.56 607.69,-118.69"/>
</g>
<!-- module.subnet.aws_subnet.public_subnet -->
<g id="node16" class="node">
<title>module.subnet.aws_subnet.public_subnet</title>
<polygon fill="none" stroke="black" points="603,-351 403,-351 403,-315 603,-315 603,-351"/>
<text text-anchor="middle" x="503" y="-329.3" font-family="sans-serif" font-size="14.00">aws_subnet.public_subnet</text>
</g>
<!-- module.srv.aws_instance.bastion&#45;&gt;module.subnet.aws_subnet.public_subnet -->
<g id="edge2" class="edge">
<title>module.srv.aws_instance.bastion&#45;&gt;module.subnet.aws_subnet.public_subnet</title>
<path fill="none" stroke="black" d="M706.23,-89.11C686.89,-93.19 667.87,-100.95 654,-115 593.32,-176.49 677.65,-243.52 618,-306 615.93,-308.17 613.71,-310.18 611.38,-312.05"/>
<polygon fill="black" stroke="black" points="609.27,-309.25 603.04,-317.82 613.25,-315.01 609.27,-309.25"/>
</g>
<!-- module.srv.aws_instance.private_instance -->
<g id="node3" class="node">
<title>module.srv.aws_instance.private_instance</title>
<polygon fill="none" stroke="black" points="902,-52 675,-52 675,-16 902,-16 902,-52"/>
<text text-anchor="middle" x="788.5" y="-30.3" font-family="sans-serif" font-size="14.00">aws_instance.private_instance</text>
</g>
<!-- module.srv.aws_security_group.private&#45;sg -->
<g id="node7" class="node">
<title>module.srv.aws_security_group.private&#45;sg</title>
<polygon fill="none" stroke="black" points="617,-79 389,-79 389,-43 617,-43 617,-79"/>
<text text-anchor="middle" x="503" y="-57.3" font-family="sans-serif" font-size="14.00">aws_security_group.private&#45;sg</text>
</g>
<!-- module.srv.aws_instance.private_instance&#45;&gt;module.srv.aws_security_group.private&#45;sg -->
<g id="edge3" class="edge">
<title>module.srv.aws_instance.private_instance&#45;&gt;module.srv.aws_security_group.private&#45;sg</title>
<path fill="none" stroke="black" d="M674.64,-44.75C659.19,-46.22 643.25,-47.74 627.62,-49.23"/>
<polygon fill="black" stroke="black" points="627.02,-45.77 617.4,-50.2 627.69,-52.74 627.02,-45.77"/>
</g>
<!-- module.subnet.aws_subnet.private_subnet -->
<g id="node15" class="node">
<title>module.subnet.aws_subnet.private_subnet</title>
<polygon fill="none" stroke="black" points="606,-297 400,-297 400,-261 606,-261 606,-297"/>
<text text-anchor="middle" x="503" y="-275.3" font-family="sans-serif" font-size="14.00">aws_subnet.private_subnet</text>
</g>
<!-- module.srv.aws_instance.private_instance&#45;&gt;module.subnet.aws_subnet.private_subnet -->
<g id="edge4" class="edge">
<title>module.srv.aws_instance.private_instance&#45;&gt;module.subnet.aws_subnet.private_subnet</title>
<path fill="none" stroke="black" d="M674.76,-45.98C667.13,-49.93 660.07,-54.87 654,-61 594.16,-121.47 676.07,-186.83 618,-249 615.97,-251.17 613.8,-253.2 611.52,-255.08"/>
<polygon fill="black" stroke="black" points="609.43,-252.28 603.35,-260.96 613.51,-257.96 609.43,-252.28"/>
</g>
<!-- module.srv.aws_key_pair.task02&#45;key -->
<g id="node4" class="node">
<title>module.srv.aws_key_pair.task02&#45;key</title>
<polygon fill="none" stroke="black" points="1172.5,-160 984.5,-160 984.5,-124 1172.5,-124 1172.5,-160"/>
<text text-anchor="middle" x="1078.5" y="-138.3" font-family="sans-serif" font-size="14.00">aws_key_pair.task02&#45;key</text>
</g>
<!-- module.srv.tls_private_key.rsa -->
<g id="node10" class="node">
<title>module.srv.tls_private_key.rsa</title>
<polygon fill="none" stroke="black" points="860,-160 717,-160 717,-124 860,-124 860,-160"/>
<text text-anchor="middle" x="788.5" y="-138.3" font-family="sans-serif" font-size="14.00">tls_private_key.rsa</text>
</g>
<!-- module.srv.aws_key_pair.task02&#45;key&#45;&gt;module.srv.tls_private_key.rsa -->
<g id="edge5" class="edge">
<title>module.srv.aws_key_pair.task02&#45;key&#45;&gt;module.srv.tls_private_key.rsa</title>
<path fill="none" stroke="black" d="M984.39,-142C947.75,-142 906.05,-142 870.66,-142"/>
<polygon fill="black" stroke="black" points="870.37,-138.5 860.37,-142 870.37,-145.5 870.37,-138.5"/>
</g>
<!-- module.srv.aws_nat_gateway.NAT_GATEWAY -->
<g id="node5" class="node">
<title>module.srv.aws_nat_gateway.NAT_GATEWAY</title>
<polygon fill="none" stroke="black" points="1198,-214 959,-214 959,-178 1198,-178 1198,-214"/>
<text text-anchor="middle" x="1078.5" y="-192.3" font-family="sans-serif" font-size="14.00">aws_nat_gateway.NAT_GATEWAY</text>
</g>
<!-- module.srv.aws_nat_gateway.NAT_GATEWAY&#45;&gt;module.srv.aws_eip.nat_eip -->
<g id="edge6" class="edge">
<title>module.srv.aws_nat_gateway.NAT_GATEWAY&#45;&gt;module.srv.aws_eip.nat_eip</title>
<path fill="none" stroke="black" d="M958.7,-196C925.85,-196 891.19,-196 861.86,-196"/>
<polygon fill="black" stroke="black" points="861.72,-192.5 851.72,-196 861.72,-199.5 861.72,-192.5"/>
</g>
<!-- module.srv.aws_nat_gateway.NAT_GATEWAY&#45;&gt;module.subnet.aws_subnet.public_subnet -->
<g id="edge7" class="edge">
<title>module.srv.aws_nat_gateway.NAT_GATEWAY&#45;&gt;module.subnet.aws_subnet.public_subnet</title>
<path fill="none" stroke="black" d="M1002.3,-214.06C911.31,-235.9 753.46,-273.75 618,-306 608.97,-308.15 599.53,-310.39 590.13,-312.62"/>
<polygon fill="black" stroke="black" points="589.27,-309.23 580.35,-314.94 590.89,-316.04 589.27,-309.23"/>
</g>
<!-- module.vpc.aws_vpc.vpc -->
<g id="node18" class="node">
<title>module.vpc.aws_vpc.vpc</title>
<polygon fill="none" stroke="black" points="120,-381 16,-381 16,-345 120,-345 120,-381"/>
<text text-anchor="middle" x="68" y="-359.3" font-family="sans-serif" font-size="14.00">aws_vpc.vpc</text>
</g>
<!-- module.srv.aws_security_group.bastion&#45;sg&#45;&gt;module.vpc.aws_vpc.vpc -->
<g id="edge8" class="edge">
<title>module.srv.aws_security_group.bastion&#45;sg&#45;&gt;module.vpc.aws_vpc.vpc</title>
<path fill="none" stroke="black" d="M435.96,-160.06C363.58,-181.69 245.8,-222.36 156,-280 131.47,-295.74 107.82,-319 91.39,-336.9"/>
<polygon fill="black" stroke="black" points="88.46,-334.92 84.37,-344.69 93.66,-339.6 88.46,-334.92"/>
</g>
<!-- module.srv.aws_security_group.private&#45;sg&#45;&gt;module.vpc.aws_vpc.vpc -->
<g id="edge9" class="edge">
<title>module.srv.aws_security_group.private&#45;sg&#45;&gt;module.vpc.aws_vpc.vpc</title>
<path fill="none" stroke="black" d="M388.94,-77.55C315.17,-93.43 220.87,-123.99 156,-182 109.48,-223.6 85.48,-295.52 75.25,-335.02"/>
<polygon fill="black" stroke="black" points="71.84,-334.24 72.83,-344.79 78.63,-335.92 71.84,-334.24"/>
</g>
<!-- module.srv.local_file.TF&#45;key -->
<g id="node8" class="node">
<title>module.srv.local_file.TF&#45;key</title>
<polygon fill="none" stroke="black" points="1141.5,-106 1015.5,-106 1015.5,-70 1141.5,-70 1141.5,-106"/>
<text text-anchor="middle" x="1078.5" y="-84.3" font-family="sans-serif" font-size="14.00">local_file.TF&#45;key</text>
</g>
<!-- module.srv.local_file.TF&#45;key&#45;&gt;module.srv.tls_private_key.rsa -->
<g id="edge10" class="edge">
<title>module.srv.local_file.TF&#45;key&#45;&gt;module.srv.tls_private_key.rsa</title>
<path fill="none" stroke="black" d="M1015.36,-99.65C972.84,-107.62 916.07,-118.27 870.07,-126.89"/>
<polygon fill="black" stroke="black" points="869.32,-123.47 860.13,-128.76 870.61,-130.35 869.32,-123.47"/>
</g>
<!-- module.srv.local_file.inventory -->
<g id="node9" class="node">
<title>module.srv.local_file.inventory</title>
<polygon fill="none" stroke="black" points="1151.5,-52 1005.5,-52 1005.5,-16 1151.5,-16 1151.5,-52"/>
<text text-anchor="middle" x="1078.5" y="-30.3" font-family="sans-serif" font-size="14.00">local_file.inventory</text>
</g>
<!-- module.srv.local_file.inventory&#45;&gt;module.srv.aws_instance.bastion -->
<g id="edge11" class="edge">
<title>module.srv.local_file.inventory&#45;&gt;module.srv.aws_instance.bastion</title>
<path fill="none" stroke="black" d="M1005.2,-47.56C967.49,-54.63 920.97,-63.35 880.8,-70.88"/>
<polygon fill="black" stroke="black" points="879.92,-67.49 870.73,-72.77 881.21,-74.37 879.92,-67.49"/>
</g>
<!-- module.srv.local_file.inventory&#45;&gt;module.srv.aws_instance.private_instance -->
<g id="edge12" class="edge">
<title>module.srv.local_file.inventory&#45;&gt;module.srv.aws_instance.private_instance</title>
<path fill="none" stroke="black" d="M1005.2,-34C977.08,-34 944.07,-34 912.44,-34"/>
<polygon fill="black" stroke="black" points="912.23,-30.5 902.23,-34 912.23,-37.5 912.23,-30.5"/>
</g>
<!-- module.subnet.aws_route_table.pri_rt -->
<g id="node11" class="node">
<title>module.subnet.aws_route_table.pri_rt</title>
<polygon fill="none" stroke="black" points="587.5,-405 418.5,-405 418.5,-369 587.5,-369 587.5,-405"/>
<text text-anchor="middle" x="503" y="-383.3" font-family="sans-serif" font-size="14.00">aws_route_table.pri_rt</text>
</g>
<!-- module.subnet.aws_route_table.pri_rt&#45;&gt;module.srv.aws_nat_gateway.NAT_GATEWAY -->
<g id="edge13" class="edge">
<title>module.subnet.aws_route_table.pri_rt&#45;&gt;module.srv.aws_nat_gateway.NAT_GATEWAY</title>
<path fill="none" stroke="black" d="M581.33,-368.95C593.61,-366 606.16,-362.95 618,-360 757.53,-325.2 797.63,-331.77 931,-278 970.56,-262.05 1012.77,-237.53 1041.67,-219.46"/>
<polygon fill="black" stroke="black" points="1043.61,-222.38 1050.2,-214.08 1039.87,-216.46 1043.61,-222.38"/>
</g>
<!-- module.subnet.aws_route_table.public_rt -->
<g id="node12" class="node">
<title>module.subnet.aws_route_table.public_rt</title>
<polygon fill="none" stroke="black" points="599,-459 407,-459 407,-423 599,-423 599,-459"/>
<text text-anchor="middle" x="503" y="-437.3" font-family="sans-serif" font-size="14.00">aws_route_table.public_rt</text>
</g>
<!-- module.vpc.aws_internet_gateway.igw -->
<g id="node17" class="node">
<title>module.vpc.aws_internet_gateway.igw</title>
<polygon fill="none" stroke="black" points="352,-381 156,-381 156,-345 352,-345 352,-381"/>
<text text-anchor="middle" x="254" y="-359.3" font-family="sans-serif" font-size="14.00">aws_internet_gateway.igw</text>
</g>
<!-- module.subnet.aws_route_table.public_rt&#45;&gt;module.vpc.aws_internet_gateway.igw -->
<g id="edge14" class="edge">
<title>module.subnet.aws_route_table.public_rt&#45;&gt;module.vpc.aws_internet_gateway.igw</title>
<path fill="none" stroke="black" d="M412.26,-422.97C401.32,-420.23 390.35,-417.23 380,-414 354.35,-405.99 326.61,-394.93 303.8,-385.16"/>
<polygon fill="black" stroke="black" points="304.91,-381.82 294.34,-381.06 302.12,-388.25 304.91,-381.82"/>
</g>
<!-- module.subnet.aws_route_table_association.pri_rta -->
<g id="node13" class="node">
<title>module.subnet.aws_route_table_association.pri_rta</title>
<polygon fill="none" stroke="black" points="919,-397 658,-397 658,-361 919,-361 919,-397"/>
<text text-anchor="middle" x="788.5" y="-375.3" font-family="sans-serif" font-size="14.00">aws_route_table_association.pri_rta</text>
</g>
<!-- module.subnet.aws_route_table_association.pri_rta&#45;&gt;module.subnet.aws_route_table.pri_rt -->
<g id="edge15" class="edge">
<title>module.subnet.aws_route_table_association.pri_rta&#45;&gt;module.subnet.aws_route_table.pri_rt</title>
<path fill="none" stroke="black" d="M657.78,-382.66C637.64,-383.23 617.16,-383.81 598.01,-384.35"/>
<polygon fill="black" stroke="black" points="597.72,-380.85 587.82,-384.63 597.91,-387.85 597.72,-380.85"/>
</g>
<!-- module.subnet.aws_route_table_association.pri_rta&#45;&gt;module.subnet.aws_subnet.private_subnet -->
<g id="edge16" class="edge">
<title>module.subnet.aws_route_table_association.pri_rta&#45;&gt;module.subnet.aws_subnet.private_subnet</title>
<path fill="none" stroke="black" d="M750.53,-360.85C716.67,-344.77 664.84,-321.5 618,-306 611.3,-303.78 604.31,-301.67 597.25,-299.67"/>
<polygon fill="black" stroke="black" points="598.16,-296.29 587.59,-297.02 596.31,-303.04 598.16,-296.29"/>
</g>
<!-- module.subnet.aws_route_table_association.pub_rta -->
<g id="node14" class="node">
<title>module.subnet.aws_route_table_association.pub_rta</title>
<polygon fill="none" stroke="black" points="923,-455 654,-455 654,-419 923,-419 923,-455"/>
<text text-anchor="middle" x="788.5" y="-433.3" font-family="sans-serif" font-size="14.00">aws_route_table_association.pub_rta</text>
</g>
<!-- module.subnet.aws_route_table_association.pub_rta&#45;&gt;module.subnet.aws_route_table.public_rt -->
<g id="edge17" class="edge">
<title>module.subnet.aws_route_table_association.pub_rta&#45;&gt;module.subnet.aws_route_table.public_rt</title>
<path fill="none" stroke="black" d="M653.64,-438.89C638.87,-439.1 623.99,-439.31 609.64,-439.51"/>
<polygon fill="black" stroke="black" points="609.24,-436.01 599.29,-439.66 609.34,-443.01 609.24,-436.01"/>
</g>
<!-- module.subnet.aws_route_table_association.pub_rta&#45;&gt;module.subnet.aws_subnet.public_subnet -->
<g id="edge18" class="edge">
<title>module.subnet.aws_route_table_association.pub_rta&#45;&gt;module.subnet.aws_subnet.public_subnet</title>
<path fill="none" stroke="black" d="M679.9,-418.96C670.8,-415.39 662.03,-411.12 654,-406 632.11,-392.05 639.86,-374 618,-360 615.51,-358.41 612.94,-356.91 610.3,-355.49"/>
<polygon fill="black" stroke="black" points="611.61,-352.24 601.09,-351.03 608.56,-358.54 611.61,-352.24"/>
</g>
<!-- module.subnet.aws_subnet.private_subnet&#45;&gt;module.vpc.aws_vpc.vpc -->
<g id="edge19" class="edge">
<title>module.subnet.aws_subnet.private_subnet&#45;&gt;module.vpc.aws_vpc.vpc</title>
<path fill="none" stroke="black" d="M399.86,-281.99C329.98,-286.23 235.88,-296.29 156,-320 139.84,-324.8 123.01,-332.42 108.52,-339.92"/>
<polygon fill="black" stroke="black" points="106.54,-337 99.36,-344.8 109.83,-343.18 106.54,-337"/>
</g>
<!-- module.subnet.aws_subnet.public_subnet&#45;&gt;module.vpc.aws_vpc.vpc -->
<g id="edge20" class="edge">
<title>module.subnet.aws_subnet.public_subnet&#45;&gt;module.vpc.aws_vpc.vpc</title>
<path fill="none" stroke="black" d="M402.94,-326.24C333.42,-323.35 238.5,-323.13 156,-336 146.93,-337.41 137.51,-339.57 128.35,-342.07"/>
<polygon fill="black" stroke="black" points="127.2,-338.76 118.56,-344.89 129.13,-345.49 127.2,-338.76"/>
</g>
<!-- module.vpc.aws_internet_gateway.igw&#45;&gt;module.vpc.aws_vpc.vpc -->
<g id="edge21" class="edge">
<title>module.vpc.aws_internet_gateway.igw&#45;&gt;module.vpc.aws_vpc.vpc</title>
<path fill="none" stroke="black" d="M155.88,-363C147.26,-363 138.69,-363 130.49,-363"/>
<polygon fill="black" stroke="black" points="130.32,-359.5 120.32,-363 130.32,-366.5 130.32,-359.5"/>
</g>
</g>
</svg>
